<svg version="1.2" xmlns="http://www.w3.org/2000/svg" viewBox="0 0 741 609" width="608" height="500">
	<title>undraw_product_iteration_kjok-svg</title>
	<style>
		.s0 { fill: #e6e6e6 } 
		.s1 { fill: #9f616a } 
		.s2 { fill: #2f2e41 } 
		.s3 { fill: #d0cde1 } 
		.s4 { fill: #6c63ff } 
		.s5 { fill: #ffffff } 
	</style>
	<path id="Layer" class="s0" d="m740.8 589.9c0.3 23.7-149.1 25.8-152 0-0.2-23.7 149.2-25.9 152 0z"/>
	<path id="Layer" class="s1" d="m624 507.6l-11.1 6 7 23.2 11.1 1 6.1-13.1-13.1-17.1z"/>
	<path id="Layer" class="s1" d="m658.3 554v11.1l17.1-1-0.2-9.2-16.9-0.9z"/>
	<path id="Layer" class="s2" d="m619.9 374.3l6.1 75.7 19.2 111.1 30.2-4.1-10.1-87.8 4.1-80.7-49.5-14.2z"/>
	<path id="Layer" class="s2" d="m700.7 317.8l-72.7 1-8.1 55.5 49.5 23.3 12.1 44.4-61.6 65.6 24.3 30.2c0 0 34.3-46.4 59.5-72.6 25.2-26.3 13.1-106 13.1-106z"/>
	<path id="Layer" class="s1" d="m657.3 174.5c-12.3 0-22.2-9.9-22.2-22.2 0-12.3 9.9-22.2 22.2-22.2 12.2 0 22.2 9.9 22.2 22.2 0 12.3-10 22.2-22.2 22.2z"/>
	<path id="Layer" class="s1" d="m649.2 167.5v22.2l15.1 24.2c0 0 23.2-17.2 18.2-21.2-5-4.1-6.1-35.3-6.1-35.3z"/>
	<path id="Layer" class="s3" d="m649.2 185.6l-15.1 18.2 6 126.1 47.4-1 8.1-110-10.1-28.2-6.9-9.5-12.2 18.5-17.2-14.1z"/>
	<path id="Layer" class="s2" d="m625 251.2l-11.1 42.4 11.1 42.4-18.2 24.2-16.1-76.7c0 0 12.1-62.6 13.1-69.6 1-7.1 3-8.1 3-8.1l8.1 1z"/>
	<path id="Layer" class="s2" d="m705.7 267.4l7.1 13.1 2 22.2-4 25.2 14.1 23.2 14.1-63.5-15.1-81.8h-6.1l-12.1 61.6z"/>
	<path id="Layer" class="s2" d="m619.9 506.6c0 0-14.1 4-19.1 5-5.1 1 3 20.2 3 20.2 0 0 5 26.2 6 31.3 1 5 8.1 22.2 17.2 24.2 9.1 2 3-35.3 3-35.3 0 0 4.1-12.1 4.1-16.2 0-4-6.1-2-6.1-2-16.1-2-8.1-27.2-8.1-27.2z"/>
	<path id="Layer" class="s2" d="m653.2 584.3c1 6-1 6 15.2 8 16.1 2.1 12.1-11.1 12.1-11.1q-0.3-2.3-0.6-4.6-0.4-2.3-0.9-4.6-0.5-2.2-1.2-4.5-0.6-2.2-1.4-4.4c-3-8.1-19.1 2-19.1 2 0 0-5.1 13.1-4.1 19.2z"/>
	<path id="Layer" class="s2" d="m676.5 158.1l0.5 8.9c0 0 6.5-14.7 7.5-29.8 1-15.2-16.1-18.2-26.2-19.2-10.1-1-27.3 6.1-27.3 14.1 0 8.1 18.2 6.1 25.3 4.1 7-2.1 10.1 15.1 10.1 15.1l4 1z"/>
	<path id="Layer" class="s3" d="m643.2 192.8l6-7.2 17.2 14.1-17.2 12.2-6-19.1z"/>
	<path id="Layer" class="s3" d="m685.5 190.7l-7-9.1-12.1 18.1 15.1 11.2 4-20.2z"/>
	<path id="Layer" class="s2" d="m621.9 265.4l4.1 38.3-8.1 23.2-5 22.2c0 0 0 21.2 20.1 22.2 20.2 1 37.4-63.6 37.4-63.6 0 0 3 14.2 5 22.2 2.1 8.1 36.4 40.4 36.4 40.4 0 0 8-1 15.1-17.1 7.1-16.2-14.1-31.3-14.1-31.3l-6.1-21.2 2-26.3 14.2-68.6-41.9-21.7 4.5 58-15.1 45.5-22.7-100.5-7.6 5.6-32.3 13.1z"/>
	<path id="Layer" class="s3" d="m223.1 418c-2 0-4 0-6-0.1v-2c2 0.1 4 0.1 6 0.1q3 0 6-0.1v2q-3 0.1-6 0.1zm-18-0.8c-4-0.4-8-0.9-12-1.6l0.3-1.9c3.9 0.6 7.9 1.1 11.9 1.5zm36-0.1l-0.1-1.9c3.9-0.4 7.9-0.9 11.8-1.6l0.3 2c-4 0.6-8 1.2-12 1.5zm-59.8-3.7c-3.9-0.9-7.8-1.9-11.7-3.1l0.6-1.9c3.8 1.1 7.7 2.1 11.5 3zm83.7 0l-0.5-2c3.9-0.9 7.8-1.9 11.5-3l0.6 1.9c-3.8 1.1-7.7 2.2-11.6 3.1zm-106.8-6.8c-3.7-1.4-7.5-2.9-11.2-4.5l0.8-1.9c3.7 1.6 7.4 3.1 11.1 4.5zm129.8-0.1l-0.6-1.8c3.6-1.4 7.4-2.9 11-4.5l0.8 1.8c-3.7 1.6-7.4 3.2-11.2 4.5zm-151.8-9.6c-3.6-1.9-7.1-3.9-10.6-6l1.1-1.7c3.4 2.1 6.9 4.1 10.4 5.9zm173.9-0.1l-1-1.8c3.5-1.8 7-3.8 10.4-5.8l1 1.7c-3.4 2.1-6.9 4.1-10.4 5.9zm-194.5-12.4c-3.3-2.3-6.6-4.7-9.7-7.2l1.3-1.6c3.1 2.5 6.3 4.9 9.5 7.1zm215.1 0l-1.2-1.7c3.3-2.2 6.5-4.6 9.6-7.1l1.2 1.6c-3.1 2.5-6.4 4.9-9.6 7.2zm-233.9-15c-3-2.7-5.9-5.5-8.7-8.4l1.5-1.4c2.7 2.9 5.6 5.7 8.5 8.3zm252.7 0l-1.3-1.5c2.9-2.7 5.8-5.5 8.5-8.3l1.5 1.4c-2.8 2.9-5.7 5.7-8.7 8.4zm-269.4-17.3c-2.6-3-5.2-6.2-7.6-9.4l1.6-1.2c2.4 3.2 4.9 6.3 7.5 9.3zm286.2 0l-1.5-1.3c2.6-3 5.1-6.2 7.4-9.4l1.6 1.2c-2.4 3.3-4.9 6.4-7.5 9.5zm-300.6-19.2c-2.2-3.4-4.3-6.8-6.3-10.3l1.7-1c2 3.4 4.1 6.9 6.2 10.2zm315.1-0.1l-1.7-1.1c2.2-3.3 4.3-6.8 6.2-10.2l1.8 1c-2 3.4-4.1 6.9-6.3 10.3zm-326.9-20.9c-1.8-3.6-3.4-7.3-4.9-11l1.8-0.7c1.5 3.6 3.2 7.3 4.9 10.9zm338.8-0.2l-1.8-0.9c1.7-3.5 3.3-7.2 4.8-10.9l1.8 0.8c-1.5 3.7-3.1 7.4-4.8 11zm-347.9-22.1c-1.2-3.8-2.4-7.7-3.4-11.6l1.9-0.5c1 3.8 2.2 7.7 3.4 11.4zm356.9-0.2l-1.9-0.6c1.3-3.8 2.4-7.6 3.4-11.4l1.9 0.5c-1 3.8-2.1 7.7-3.4 11.5zm-363-23.1c-0.8-3.9-1.4-7.9-1.9-11.9l2-0.2c0.5 3.9 1.1 7.9 1.9 11.8zm369.1-0.3l-2-0.3c0.7-3.9 1.4-7.9 1.9-11.8l2 0.2c-0.5 4-1.2 8-1.9 11.9zm-372.2-23.6c-0.3-4-0.4-8.1-0.4-12.1h2c0 4 0.1 8 0.4 11.9zm375.2-0.2l-2-0.1c0.3-3.9 0.4-8 0.4-11.9v-0.5h2v0.5c0 4-0.1 8-0.4 12zm-373.2-23.7l-2-0.1c0.2-4 0.6-8.1 1.1-12l2 0.2c-0.5 3.9-0.9 7.9-1.1 11.9zm371.2-0.7c-0.3-3.9-0.7-7.9-1.2-11.8l2-0.3c0.5 4 0.9 8 1.2 12zm-368.3-23l-1.9-0.4c0.7-3.9 1.6-7.8 2.6-11.7l2 0.5c-1 3.8-1.9 7.7-2.7 11.6zm365.2-0.6c-0.8-3.9-1.7-7.8-2.7-11.6l2-0.6c1 3.9 1.9 7.9 2.7 11.8zm-359.2-22.4l-1.9-0.7c1.3-3.8 2.7-7.6 4.2-11.3l1.8 0.8c-1.5 3.6-2.9 7.4-4.1 11.2zm353.1-0.7c-1.3-3.7-2.7-7.5-4.2-11.1l1.9-0.8c1.5 3.7 2.9 7.5 4.2 11.3zm-344.2-21.5l-1.8-0.9c1.8-3.6 3.6-7.2 5.6-10.7l1.7 1c-1.9 3.5-3.8 7-5.5 10.6zm335.2-0.5c-1.7-3.6-3.6-7.1-5.5-10.6l1.7-1c2 3.5 3.9 7.1 5.6 10.7zm-323.5-20.2l-1.7-1.1c2.2-3.4 4.5-6.7 6.9-9.9l1.6 1.2c-2.3 3.1-4.6 6.4-6.8 9.8zm311.8-0.5c-2.2-3.3-4.5-6.6-6.9-9.8l1.6-1.2c2.4 3.2 4.7 6.5 6.9 9.9zm-297.5-18.7l-1.5-1.2c2.6-3.1 5.3-6.1 8.1-9l1.5 1.4c-2.8 2.9-5.5 5.8-8.1 8.8zm283.2-0.4c-2.5-3-5.2-5.9-8-8.8l1.4-1.4c2.8 2.9 5.6 5.9 8.2 8.9zm-266.7-16.7l-1.3-1.5c2.9-2.7 6-5.3 9.1-7.8l1.3 1.6c-3.1 2.4-6.1 5-9.1 7.7zm250-0.4c-2.9-2.6-5.9-5.2-9-7.7l1.2-1.5c3.1 2.5 6.2 5.1 9.2 7.8zm-231.4-14.6l-1.2-1.6c3.3-2.3 6.7-4.5 10.1-6.6l1 1.7c-3.3 2.1-6.7 4.3-9.9 6.5zm212.7-0.3c-3.2-2.2-6.6-4.4-10-6.5l1.1-1.7c3.4 2.1 6.8 4.3 10.1 6.6zm-192.5-12.1l-0.9-1.8c3.6-1.8 7.2-3.6 10.8-5.2l0.9 1.8c-3.6 1.6-7.3 3.4-10.8 5.2zm172.1-0.3c-3.5-1.8-7.2-3.5-10.8-5.1l0.8-1.9c3.7 1.7 7.3 3.4 10.9 5.3zm-150.3-9.4l-0.7-1.9c3.8-1.4 7.6-2.7 11.4-3.8l0.6 1.9c-3.8 1.1-7.6 2.4-11.3 3.8zm128.5-0.3c-3.8-1.3-7.6-2.6-11.4-3.7l0.6-1.9c3.8 1.1 7.7 2.4 11.4 3.8zm-105.6-6.6l-0.4-2c3.9-0.9 7.9-1.6 11.8-2.3l0.3 2c-3.9 0.6-7.8 1.4-11.7 2.3zm82.8-0.2c-3.9-0.8-7.8-1.6-11.7-2.2l0.3-2c4 0.6 7.9 1.4 11.8 2.3zm-59.2-3.7l-0.2-2c4-0.4 8-0.6 12-0.8l0.1 2c-4 0.2-8 0.4-11.9 0.8zm35.7-0.1c-3.9-0.3-7.9-0.6-11.9-0.7l0.1-2c4 0.1 8 0.4 12 0.8z"/>
	<path id="Layer" class="s4" d="m216 94c-26 0-47-21-47-47 0-26 21-47 47-47 26 0 47 21 47 47 0 26-21 47-47 47z"/>
	<path id="Layer" class="s4" d="m398 222c-26 0-47-21-47-47 0-26 21-47 47-47 26 0 47 21 47 47 0 26-21 47-47 47z"/>
	<path id="Layer" class="s4" d="m341 418c-26 0-47-21-47-47 0-26 21-47 47-47 26 0 47 21 47 47 0 26-21 47-47 47z"/>
	<path id="Layer" class="s4" d="m115 426c-26 0-47-21-47-47 0-26 21-47 47-47 26 0 47 21 47 47 0 26-21 47-47 47z"/>
	<path id="Layer" class="s4" d="m47 222c-26 0-47-21-47-47 0-26 21-47 47-47 26 0 47 21 47 47 0 26-21 47-47 47z"/>
	<path id="Layer" fill-rule="evenodd" class="s5" d="m236.3 43.3q0.1 0 0.2 0.1 0 0.1 0.1 0.1 0 0.1 0 0.2v22q0 1.5-0.6 2.9-0.5 1.4-1.6 2.4-1 1.1-2.4 1.7-1.4 0.5-2.9 0.5h-26.2q-1.5 0-2.9-0.5-1.4-0.6-2.4-1.7-1.1-1-1.6-2.4-0.6-1.4-0.6-2.9v-37.4q0-1.5 0.6-2.9 0.5-1.4 1.6-2.4 1-1.1 2.4-1.7 1.4-0.5 2.9-0.5h10.8q0.1 0 0.1 0 0.1 0 0.2 0.1 0.1 0.1 0.1 0.2 0 0 0 0.1v16.4q0 1.1 0.5 2.2 0.4 1 1.2 1.8 0.8 0.8 1.8 1.2 1 0.5 2.1 0.5h16.4q0.1 0 0.2 0zm-9.6 18.1c0.3-0.3 0.5-0.8 0.5-1.3 0-0.5-0.2-1-0.5-1.3-0.4-0.4-0.8-0.6-1.3-0.6h-18.8c-0.5 0-0.9 0.2-1.3 0.6-0.3 0.3-0.5 0.8-0.5 1.3 0 0.5 0.2 1 0.5 1.3 0.4 0.4 0.8 0.6 1.3 0.6h18.8c0.5 0 0.9-0.2 1.3-0.6zm0-9.3c0.3-0.4 0.5-0.9 0.5-1.4 0-0.4-0.2-0.9-0.5-1.3-0.4-0.3-0.8-0.5-1.3-0.5h-18.8c-0.5 0-0.9 0.2-1.3 0.5-0.3 0.4-0.5 0.9-0.5 1.3 0 0.5 0.2 1 0.5 1.4 0.4 0.3 0.8 0.5 1.3 0.5h18.8c0.5 0 0.9-0.2 1.3-0.5z"/>
	<path id="Layer" class="s5" d="m235.1 39.1l-16.8-16.8q-0.1-0.1-0.1-0.1-0.1 0-0.2 0 0 0-0.1 0.1 0 0.1 0 0.1v15.2q0 0.4 0.1 0.7 0.2 0.4 0.4 0.7 0.3 0.2 0.6 0.4 0.4 0.1 0.7 0.1h15.2q0.1 0 0.2 0 0-0.1 0.1-0.1 0-0.1 0-0.2 0 0-0.1-0.1z"/>
	<path id="Layer" class="s5" d="m347.8 361.7c-1.2 0-2.2 0.9-2.4 2-0.3 1.2 0.3 2.4 1.4 2.8 1.1 0.5 2.4 0.1 3.1-0.9 0.6-1 0.5-2.3-0.3-3.1q-0.2-0.2-0.4-0.3-0.2-0.2-0.4-0.3-0.3-0.1-0.5-0.1-0.3-0.1-0.5-0.1z"/>
	<path id="Layer" fill-rule="evenodd" class="s5" d="m359.7 363.9q-0.7 1.7-1.6 3.4-0.8 1.6-1.8 3.2-1 1.6-2.2 3-1.1 1.5-2.4 2.8-0.4 0.4-0.7 0.8-0.4 0.3-0.8 0.7-0.4 0.3-0.8 0.6-0.4 0.4-0.9 0.7 0.1 0.7 0.1 1.4-0.1 0.7-0.2 1.4-0.1 0.6-0.3 1.3-0.2 0.7-0.4 1.3c-2.4 5.4-8.5 7-11 7.4q0 0-0.1 0 0 0-0.1 0 0 0-0.1 0 0 0-0.1 0-0.1 0-0.2 0-0.4-0.1-0.9-0.3-0.4-0.2-0.7-0.6-0.2-0.3-0.4-0.8-0.1-0.4-0.1-0.9l0.7-6h-0.2q-0.3 0-0.5-0.1-0.3-0.1-0.6-0.2-0.2-0.1-0.4-0.3-0.3-0.1-0.4-0.3l-3-3q-0.2-0.1-0.3-0.4-0.2-0.2-0.3-0.4-0.1-0.3-0.2-0.6-0.1-0.2-0.1-0.5 0-0.1 0-0.2l-6 0.7q-0.6 0-1.1-0.2-0.5-0.2-0.9-0.6-0.3-0.4-0.5-0.9-0.2-0.5-0.1-1c0.4-2.5 2-8.6 7.4-11q0.6-0.2 1.3-0.4 0.7-0.2 1.3-0.3 0.7-0.1 1.4-0.2 0.7 0 1.4 0 0.3-0.4 0.7-0.8 0.3-0.4 0.7-0.8 0.3-0.4 0.7-0.8 0.3-0.3 0.7-0.7 1.3-1.3 2.8-2.5 1.5-1.1 3.1-2.1 1.6-1 3.2-1.8 1.7-0.9 3.4-1.6c4.9-1.9 9.3-2.6 12.1-2q0.2 0.1 0.4 0.2 0.3 0.2 0.5 0.4 0.1 0.1 0.3 0.4 0.1 0.2 0.2 0.5c0.6 2.9-0.1 7.3-2 12.1zm-8 4.1q0.8-0.7 1.2-1.7 0.4-1 0.4-2.1 0-1.1-0.4-2.1-0.5-1-1.2-1.8c-1.6-1.5-4-2-6-1.1-2.1 0.8-3.4 2.8-3.4 5 0 2.2 1.3 4.2 3.4 5.1 2 0.8 4.4 0.4 6-1.2z"/>
	<path id="Layer" class="s5" d="m332.2 383.2q-0.1 0-0.2 0-0.2 0-0.3 0-0.1 0-0.3 0.1-0.1 0-0.2 0.1-0.9 0.6-1.8 1.2-0.4 0.3-0.9 0.2-0.5 0-0.8-0.3-0.4-0.4-0.4-0.8-0.1-0.5 0.1-0.9l1.2-2q0.2-0.4 0.2-0.8 0-0.4-0.2-0.8-0.2-0.4-0.6-0.6-0.4-0.2-0.8-0.1-0.5 0-1 0.2-0.4 0.1-0.8 0.3-0.5 0.2-0.9 0.5-0.3 0.3-0.7 0.6c-0.3 0.3-1.4 1.4-1.9 5.3q-0.1 0.5-0.1 0.9-0.1 0.4-0.1 0.9 0 0.4-0.1 0.8 0 0.4 0 0.9 0 0.3 0.1 0.6 0.1 0.2 0.3 0.4 0.2 0.3 0.5 0.4 0.2 0.1 0.5 0.1 0.1 0 0.1 0 0.4 0 0.9 0 0.4-0.1 0.8-0.1 0.5 0 0.9-0.1 0.4 0 0.9-0.1c3.9-0.5 5-1.6 5.3-1.9q0.3-0.4 0.6-0.7 0.3-0.4 0.5-0.9 0.2-0.4 0.3-0.8 0.2-0.5 0.2-1 0.1-0.3 0-0.5-0.1-0.3-0.3-0.6-0.2-0.2-0.4-0.3-0.3-0.2-0.6-0.2z"/>
	<path id="Layer" class="s5" d="m98.8 404.5h-3.4q-0.5 0-1-0.2-0.4-0.1-0.8-0.5-0.3-0.4-0.5-0.8-0.2-0.5-0.2-1v-15.3q0-0.5 0.2-1 0.2-0.5 0.5-0.8 0.4-0.4 0.8-0.6 0.5-0.2 1-0.2h3.4q0.5 0 1 0.2 0.5 0.2 0.8 0.6 0.4 0.3 0.6 0.8 0.2 0.5 0.2 1v15.3q0 0.5-0.2 1-0.2 0.4-0.6 0.8-0.3 0.4-0.8 0.5-0.5 0.2-1 0.2z"/>
	<path id="Layer" class="s5" d="m122.7 404.5h-3.4q-0.6 0-1-0.2-0.5-0.1-0.8-0.5-0.4-0.4-0.6-0.8-0.2-0.5-0.2-1v-25.6q0-0.5 0.2-0.9 0.2-0.5 0.6-0.9 0.3-0.3 0.8-0.5 0.4-0.2 1-0.2h3.4q0.5 0 0.9 0.2 0.5 0.2 0.9 0.5 0.3 0.4 0.5 0.9 0.2 0.4 0.2 0.9v25.6q0 0.5-0.2 1-0.2 0.4-0.5 0.8-0.4 0.4-0.9 0.5-0.4 0.2-0.9 0.2z"/>
	<path id="Layer" class="s5" d="m134.6 404.5h-3.4q-0.5 0-1-0.2-0.5-0.1-0.8-0.5-0.4-0.4-0.6-0.8-0.2-0.5-0.2-1v-37.5q0-0.5 0.2-0.9 0.2-0.5 0.6-0.9 0.3-0.3 0.8-0.5 0.5-0.2 1-0.2h3.4q0.5 0 1 0.2 0.4 0.2 0.8 0.5 0.3 0.4 0.5 0.9 0.2 0.4 0.2 0.9v37.5q0 0.5-0.2 1-0.2 0.4-0.5 0.8-0.4 0.4-0.8 0.5-0.5 0.2-1 0.2z"/>
	<path id="Layer" class="s5" d="m110.7 404.5h-3.4q-0.5 0-0.9-0.2-0.5-0.1-0.9-0.5-0.3-0.4-0.5-0.8-0.2-0.5-0.2-1v-46q0-0.5 0.2-1 0.2-0.4 0.5-0.8 0.4-0.4 0.9-0.5 0.4-0.2 0.9-0.2h3.4q0.6 0 1 0.2 0.5 0.1 0.8 0.5 0.4 0.4 0.6 0.8 0.2 0.5 0.2 1v46q0 0.5-0.2 1-0.2 0.4-0.6 0.8-0.3 0.4-0.8 0.5-0.4 0.2-1 0.2z"/>
	<path id="Layer" class="s5" d="m400.3 173.8l-2.5-2.5q-0.4-0.4-0.9-0.6-0.6-0.2-1.2-0.2-0.6 0-1.1 0.2-0.6 0.2-1 0.6l-16.9 15.6q-0.2 0.2-0.4 0.5-0.2 0.2-0.3 0.5-0.2 0.3-0.3 0.6 0 0.3-0.1 0.6 0 0.3 0.1 0.6 0 0.3 0.1 0.6 0.1 0.3 0.3 0.5 0.2 0.3 0.4 0.5l3.6 3.7q0.2 0.2 0.5 0.4 0.2 0.1 0.5 0.2 0.3 0.2 0.6 0.2 0.3 0.1 0.6 0.1h0.1q0.3 0 0.6-0.1 0.3-0.1 0.5-0.2 0.3-0.2 0.6-0.4 0.2-0.1 0.4-0.4l15.7-16.8q0.5-0.4 0.7-1 0.2-0.5 0.2-1.1 0-0.6-0.2-1.2-0.2-0.5-0.6-0.9z"/>
	<path id="Layer" class="s5" d="m419.8 168.9v-0.1l-3.2-3.1q-0.2-0.2-0.3-0.3-0.2-0.1-0.4-0.2-0.2 0-0.3-0.1-0.2 0-0.4 0-0.2 0-0.4 0-0.1 0-0.3 0.1-0.1 0-0.3 0.1-0.1 0.1-0.2 0.2 0-0.1 0-0.2 0-0.3 0-0.6 0-0.3-0.1-0.6 0-0.3-0.1-0.6-0.1-0.2-0.3-0.5-0.3-0.4-0.5-0.7-0.3-0.3-0.6-0.7-0.3-0.3-0.6-0.6-0.3-0.4-0.6-0.7-0.9-0.8-1.9-1.6-0.9-0.7-1.9-1.4-1-0.6-2.1-1.2-1.1-0.5-2.2-1-0.6-0.2-1.2-0.4-0.6-0.2-1.2-0.3-0.7-0.1-1.3-0.2-0.6-0.1-1.3-0.1-0.8 0-1.6 0.2-0.8 0.1-1.6 0.4-0.7 0.2-1.4 0.6-0.8 0.4-1.4 0.9-0.2 0.2-0.3 0.4-0.2 0.2-0.4 0.4-0.1 0.2-0.3 0.4-0.2 0.1-0.3 0.4-0.3 0.4-0.3 0.8 0 0.5 0.3 0.9 0.3 0.4 0.8 0.6 0.5 0.1 0.9-0.1 0.1 0 0.2 0 0.1-0.1 0.2-0.1 0.1 0 0.2-0.1 0.1 0 0.2 0 0.2-0.1 0.5-0.1 0.2 0 0.4 0 0.2-0.1 0.4-0.1 0.2 0.1 0.4 0.1 0.5 0 0.9 0.1 0.5 0.1 0.9 0.3 0.4 0.1 0.8 0.3 0.4 0.2 0.8 0.5 0.4 0.3 0.7 0.8 0.3 0.4 0.6 0.9 0.2 0.5 0.3 1 0.1 0.6 0.1 1.1-0.2 0.5-0.4 0.9-0.2 0.4-0.4 0.8-0.2 0.4-0.5 0.8-0.3 0.4-0.6 0.7-0.2 0.2-0.2 0.5-0.1 0.3-0.1 0.5 0 0.3 0.1 0.5 0.2 0.3 0.3 0.5l3.3 3.2q0.2 0.2 0.4 0.3 0.3 0.1 0.6 0.1 0.3 0 0.5-0.1 0.3-0.1 0.5-0.2c0.9-0.9 2.3-2.1 2.8-2.4q0.1-0.1 0.3-0.2 0.2-0.1 0.3-0.1 0.2-0.1 0.4-0.1 0.2-0.1 0.3-0.1 0.2 0 0.3 0 0.2 0 0.3 0 0.1 0 0.2 0.1 0.2 0 0.3 0.1 0 0 0 0 0 0 0 0 0 0.1 0 0.1 0 0 0 0l-0.2 0.2q-0.3 0.3-0.5 0.6-0.1 0.4-0.1 0.8 0 0.4 0.1 0.8 0.2 0.3 0.5 0.6l3.2 3.2q0.1 0.1 0.3 0.2 0.1 0.1 0.3 0.2 0.2 0.1 0.4 0.1 0.2 0.1 0.4 0.1 0.2 0 0.4-0.1 0.2 0 0.4-0.1 0.1-0.1 0.3-0.2 0.2-0.1 0.3-0.2l5.2-5.1q0 0 0-0.1 0.3-0.3 0.4-0.6 0.2-0.4 0.2-0.8 0-0.4-0.2-0.7-0.1-0.4-0.4-0.6z"/>
	<path id="Layer" class="s5" d="m54.5 172.2q-0.6 0-1.1-0.3-0.4-0.3-0.7-0.9-0.2-0.5-0.1-1 0.1-0.6 0.5-1l4.3-4.3-4.3-4.2c-0.3-0.4-0.5-0.9-0.5-1.4 0-0.5 0.2-0.9 0.5-1.3 0.4-0.3 0.9-0.5 1.4-0.5 0.5 0 0.9 0.2 1.3 0.5l5.6 5.6q0.2 0.3 0.4 0.6 0.1 0.4 0.1 0.7 0 0.4-0.1 0.8-0.2 0.3-0.4 0.6l-5.6 5.6q-0.1 0.1-0.3 0.2-0.2 0.1-0.3 0.2-0.2 0-0.4 0.1-0.2 0-0.3 0z"/>
	<path id="Layer" class="s5" d="m24.6 177.8q-0.4 0-0.7-0.1-0.3-0.2-0.6-0.4-0.3-0.3-0.4-0.7-0.2-0.3-0.2-0.7v-1.8c0.1-1.5 0.3-3 0.9-4.3 0.6-1.4 1.4-2.6 2.4-3.6 1.1-1.1 2.3-1.9 3.7-2.5 1.3-0.5 2.8-0.8 4.2-0.8h24.3c0.5 0 1 0.2 1.3 0.5 0.4 0.4 0.6 0.8 0.6 1.3 0 0.5-0.2 1-0.6 1.4-0.3 0.3-0.8 0.5-1.3 0.5h-24.3q-1.4 0-2.8 0.6-1.4 0.6-2.4 1.6-1.1 1.1-1.6 2.4-0.6 1.4-0.6 2.9v1.8q0 0.4-0.2 0.7-0.1 0.4-0.4 0.7-0.2 0.2-0.6 0.4-0.3 0.1-0.7 0.1z"/>
	<path id="Layer" class="s5" d="m39.5 192.7q-0.1 0-0.3 0-0.2 0-0.4-0.1-0.1-0.1-0.3-0.2-0.2-0.1-0.3-0.2l-5.6-5.6q-0.2-0.3-0.4-0.6-0.1-0.4-0.1-0.7 0-0.4 0.1-0.8 0.2-0.3 0.4-0.6l5.6-5.6c0.4-0.3 0.8-0.5 1.3-0.5 0.5 0 1 0.2 1.4 0.5 0.3 0.4 0.5 0.9 0.5 1.4 0 0.5-0.2 0.9-0.5 1.3l-4.3 4.3 4.3 4.2q0.4 0.4 0.5 1 0.1 0.5-0.1 1.1-0.3 0.5-0.7 0.8-0.5 0.3-1.1 0.3z"/>
	<path id="Layer" class="s5" d="m35.8 187.1c-0.5 0-1-0.2-1.3-0.5-0.4-0.4-0.6-0.8-0.6-1.3 0-0.5 0.2-1 0.6-1.4 0.3-0.3 0.8-0.5 1.3-0.5h24.3q1.4 0 2.8-0.6 1.4-0.6 2.4-1.6 1.1-1.1 1.6-2.4 0.6-1.4 0.6-2.9v-1.8c0-0.5 0.2-1 0.6-1.4 0.3-0.3 0.8-0.5 1.3-0.5 0.5 0 1 0.2 1.3 0.5 0.4 0.4 0.6 0.9 0.6 1.4v1.8c-0.1 1.5-0.3 3-0.9 4.3-0.6 1.4-1.4 2.6-2.4 3.6-1.1 1.1-2.3 1.9-3.7 2.5-1.3 0.5-2.8 0.8-4.2 0.8z"/>
</svg>